{"title":"American Mary 2012 BRRip 720p x264 AAC - PRiSTiNE [P2PDL]","uid":8205913,"size":590574613,"categoryP":"video","categoryS":"hd___movies","magnet":"?xt=urn:btih:2fd9251e3e438f46302e21b3b285f668ee506c27&amp;dn=American+Mary+2012+BRRip+720p+x264+AAC+-+PRiSTiNE+%5BP2PDL%5D&amp;tr=udp%3A%2F%2Ftracker.openbittorrent.com%3A80&amp;tr=udp%3A%2F%2Fopen.demonii.com%3A1337&amp;tr=udp%3A%2F%2Ftracker.coppersurfer.tk%3A6969&amp;tr=udp%3A%2F%2Fexodus.desync.com%3A6969","seeders":1,"leechers":0,"uploader":"Vitamin_X","files":-1,"time":1362125528,"description":"_________________________  Visit us at _________________________\n  &lt;a href=&quot;\nhttp://p2pdl.com&quot; rel=&quot;nofollow&quot; target=&quot;_NEW&quot;&gt;\nhttp://p2pdl.com&lt;/a&gt;  ____________________________ &lt;a href=&quot; http://p2pdl.com&quot; rel=&quot;nofollow&quot; target=&quot;_NEW&quot;&gt; http://p2pdl.com&lt;/a&gt;\n\n &lt;a href=&quot;\nhttp://www.shotpix.com/images/83433327962576643241.jpg&quot; rel=&quot;nofollow&quot; target=&quot;_NEW&quot;&gt;\nhttp://www.shotpix.com/images/83433327962576643241.jpg&lt;/a&gt;\n\nAmerican Mary 2012 BRRip 720p x264 AAC - PRiSTiNE\n\nGenre: Horror | Thriller\nPlot: The story follows medical student, Mary Mason, as she becomes \nincreasingly broke and disenchanted with the surgical world she once \nadmired. The allure of easy money sends Mary into the world of \nunderground surgeries which ends up leaving more marks on her than her \nso called 'freakish' clientele.\nDirector: Jen Soska, Sylvia Soska\nStars: Katharine Isabelle, Antonio Cupo, Tristan Risk\nRated: Rated R for strong aberrant violent content including disturbing images, torture, a rape, sexual content, graphic nudity, language and brief drug use.\n\nInfo: &lt;a href=&quot;\nhttp://www.imdb.com/title/tt1959332/&quot; rel=&quot;nofollow&quot; target=&quot;_NEW&quot;&gt;\nhttp://www.imdb.com/title/tt1959332/&lt;/a&gt;\n\nGeneral\nComplete name                  : American Mary 2012 BRRip 720p x264 AAC - PRiSTiNE.mp4\nFormat                         : MPEG-4\nFormat profile                 : Base Media\nFile size                      : 554 MiB\nDuration                       : 1h 42mn\nOverall bit rate mode          : Variable\nOverall bit rate               : 757 Kbps\n\nSource                         : 720p BluRay Geckos (Thanks)\n\nVideo\nFormat                         : AVC\nFormat/Info                    : Advanced Video Codec\nFormat profile                 : High &lt;a class=&quot;__cf_email__&quot; href=&quot;/cdn-cgi/l/email-protection&quot; data-cfemail=&quot;8dbcbdcdc1b9a3bc&quot;&gt;[email&amp;#160;protected]&lt;/a&gt;&lt;script cf-hash='f9e31' type=&quot;text/javascript&quot;&gt;\n/* &lt;![CDATA[ */!function(){try{var t=&quot;currentScript&quot;in document?document.currentScript:function(){for(var t=document.getElementsByTagName(&quot;script&quot;),e=t.length;e--;)if(t[e].getAttribute(&quot;cf-hash&quot;))return t[e]}();if(t&amp;&amp;t.previousSibling){var e,r,n,i,c=t.previousSibling,a=c.getAttribute(&quot;data-cfemail&quot;);if(a){for(e=&quot;&quot;,r=parseInt(a.substr(0,2),16),n=2;a.length-n;n+=2)i=parseInt(a.substr(n,2),16)^r,e+=String.fromCharCode(i);e=document.createTextNode(e),c.parentNode.replaceChild(e,c)}}}catch(u){}}();/* ]]&gt; */&lt;/script&gt;\nDuration                       : 1h 42mn\nBit rate                       : 679 Kbps\nWidth                          : 1 280 pixels\nHeight                         : 536 pixels\nDisplay aspect ratio           : 2.40:1\nFrame rate mode                : Constant\nFrame rate                     : 23.976 fps\nBit depth                      : 10 bits\nScan type                      : Progressive\nBits/(Pixel*Frame)             : 0.041\nStream size                    : 497 MiB (90%)\nWriting library                : x264 core 129 r2245 bc13772\n\nAudio\nFormat                         : AAC\nDuration                       : 1h 42mn\nBit rate mode                  : Variable\nBit rate                       : 75.0 Kbps\nChannel(s)                     : 2 channels\nChannel positions              : Front: L R\nSampling rate                  : 48.0 KHz / 24.0 KHz\nCompression mode               : Lossy\nStream size                    : 54.9 MiB (10%)\nLanguage                       : English\n\nSubtitle                       : Yes ( English)\n\nScreens: &lt;a href=&quot;\nhttp://www.shotpix.com/images/82884539231397302341.jpg&quot; rel=&quot;nofollow&quot; target=&quot;_NEW&quot;&gt;\nhttp://www.shotpix.com/images/82884539231397302341.jpg&lt;/a&gt; &lt;a href=&quot;\nhttp://www.shotpix.com/images/53163387319235098253.jpg&quot; rel=&quot;nofollow&quot; target=&quot;_NEW&quot;&gt;\nhttp://www.shotpix.com/images/53163387319235098253.jpg&lt;/a&gt; &lt;a href=&quot;\nhttp://www.shotpix.com/images/89758528825697174020.jpg&quot; rel=&quot;nofollow&quot; target=&quot;_NEW&quot;&gt;\nhttp://www.shotpix.com/images/89758528825697174020.jpg&lt;/a&gt; &lt;a href=&quot;\nhttp://www.shotpix.com/images/16865893778686558831.jpg&quot; rel=&quot;nofollow&quot; target=&quot;_NEW&quot;&gt;\nhttp://www.shotpix.com/images/16865893778686558831.jpg&lt;/a&gt;\n\nThumbs: &lt;a href=&quot;\nhttp://www.shotpix.com/images/80614116163443411176.jpg&quot; rel=&quot;nofollow&quot; target=&quot;_NEW&quot;&gt;\nhttp://www.shotpix.com/images/80614116163443411176.jpg&lt;/a&gt;\n----------------------------------------------------------------------------------------------------\nEncoded using state of the art 10bit encoding technique, which enable us to provide you more crisper \nand sharper images at small sizes, just make sure you follow our instructions without a fault.\nRecommend to you to use latest version of VLC player. Install K-Lite Codec Pack or shark007 codecs\nin case of any kind of problem in playback (For non-VLC Media Player users). Alternatively, install\nCore AVC codecs, the fastest decoder that there is coupled with Community Center Codec Pack and play\non Windows Media Player Classic. Check sample to be sure.\nEnjoy!\n\nGreets to: VYTO, a2zRG, MusiK_KinG, Kuroyukihime, TorDigger, Ash968, StyLishSaLH, Masta and staff members at\nExtraTorrent, TPB, H33T, KAT, 1337x, PublicHD, Ahashare, BTScene, SilverTorrent, LimeTorrents, TorrentMafia,\nP2PDL, and all others.\n\nEncoder Notes: Looking For Early Access To Anything You Can Provide DVDScr, R5, DVDR, BluRay, Direct\nAudio, Early Music Releases, Seedboxes, Dedicated Servers anything u can provide, Advance / Promo CDs/\nDVDs. If You Got anything to offer contact me at &quot;&lt;a class=&quot;__cf_email__&quot; href=&quot;/cdn-cgi/l/email-protection&quot; data-cfemail=&quot;afdfddc8efc7dadcc781ccc0c2&quot;&gt;[email&amp;#160;protected]&lt;/a&gt;&lt;script cf-hash='f9e31' type=&quot;text/javascript&quot;&gt;\n/* &lt;![CDATA[ */!function(){try{var t=&quot;currentScript&quot;in document?document.currentScript:function(){for(var t=document.getElementsByTagName(&quot;script&quot;),e=t.length;e--;)if(t[e].getAttribute(&quot;cf-hash&quot;))return t[e]}();if(t&amp;&amp;t.previousSibling){var e,r,n,i,c=t.previousSibling,a=c.getAttribute(&quot;data-cfemail&quot;);if(a){for(e=&quot;&quot;,r=parseInt(a.substr(0,2),16),n=2;a.length-n;n+=2)i=parseInt(a.substr(n,2),16)^r,e+=String.fromCharCode(i);e=document.createTextNode(e),c.parentNode.replaceChild(e,c)}}}catch(u){}}();/* ]]&gt; */&lt;/script&gt;&quot;.","torrent":{"xt":"urn:btih:2fd9251e3e438f46302e21b3b285f668ee506c27","amp;dn":"American+Mary+2012+BRRip+720p+x264+AAC+-+PRiSTiNE+%5BP2PDL%5D","amp;tr":["udp%3A%2F%2Ftracker.openbittorrent.com%3A80","udp%3A%2F%2Fopen.demonii.com%3A1337","udp%3A%2F%2Ftracker.coppersurfer.tk%3A6969","udp%3A%2F%2Fexodus.desync.com%3A6969"],"infoHash":"2fd9251e3e438f46302e21b3b285f668ee506c27","infoHashBuffer":{"type":"Buffer","data":[47,217,37,30,62,67,143,70,48,46,33,179,178,133,246,104,238,80,108,39]},"announce":[],"urlList":[]}}